<svg width="32" height="32" viewBox="0 0 32 32" fill="none" xmlns="http://www.w3.org/2000/svg">
<path fill-rule="evenodd" clip-rule="evenodd" d="M15.4631 3C11.2074 3 8.5 5.5 7.5 6.5C6.5 7.5 5.5 9 5.5 9C5.5 9 6.5 8.5 8 8C9.5 7.5 11 7.65217 11.7713 7.65217C16.0645 7.65217 19.5393 11.2283 19.5393 15.5C19.5393 19.7717 16.0645 23.3478 11.7713 23.3478C11 23.3478 9.5 23.5 8 23C6.5 22.5 5.5 22 5.5 22C5.5 22 6.5 23.5 7.5 24.5C8.5 25.5 11.2074 28 15.4631 28C22.384 28 28 22.4066 28 15.5C28 8.59342 22.384 3 15.4631 3ZM11.5109 5.7634C11.5974 5.76114 11.6842 5.76 11.7713 5.76C17.163 5.76 21.5393 10.1177 21.5393 15.5C21.5393 20.8823 17.163 25.24 11.7713 25.24C11.6842 25.24 11.5974 25.2389 11.5109 25.2366C12.7313 25.729 14.0654 26 15.4631 26C21.2855 26 26 21.296 26 15.5C26 9.70403 21.2855 5 15.4631 5C14.0654 5 12.7313 5.27103 11.5109 5.7634Z" fill="currentColor"/>
</svg>
